<svg xmlns="http://www.w3.org/2000/svg" viewBox="0 0 512 512" width="512" height="512">
  <defs>
    <linearGradient id="bgGrad" x1="0%" y1="0%" x2="100%" y2="100%">
      <stop offset="0%" stop-color="#1e3a8a" />
      <stop offset="100%" stop-color="#0f172a" />
    </linearGradient>
    <linearGradient id="goldGrad" x1="0%" y1="0%" x2="100%" y2="100%">
      <stop offset="0%" stop-color="#fcd34d" />
      <stop offset="100%" stop-color="#f59e0b" />
    </linearGradient>
  </defs>
  <!-- Background Rounded Shield -->
  <rect width="512" height="512" rx="100" fill="url(#bgGrad)" />
  <circle cx="256" cy="256" r="220" fill="none" stroke="url(#goldGrad)" stroke-width="8" stroke-dasharray="8 6" />
  
  <!-- Outer Ring Emblem -->
  <circle cx="256" cy="256" r="195" fill="#1e293b" stroke="#3b82f6" stroke-width="4" />
  
  <!-- Torch and Flames -->
  <path d="M256 120 C240 160 210 180 230 220 C240 200 250 195 256 180 C262 195 272 200 282 220 C302 180 272 160 256 120 Z" fill="url(#goldGrad)" />
  <path d="M256 145 C250 165 240 175 250 195 C254 185 258 185 256 175 C258 185 262 185 266 195 C276 175 262 165 256 145 Z" fill="#ef4444" />
  
  <!-- Torch Handle -->
  <path d="M245 220 L267 220 L262 265 L250 265 Z" fill="#94a3b8" stroke="#cbd5e1" stroke-width="2" />
  
  <!-- Open Book -->
  <path d="M160 290 Q256 265 256 300 Q256 265 352 290 L345 350 Q256 325 256 355 Q256 325 167 350 Z" fill="#ffffff" stroke="#cbd5e1" stroke-width="3" />
  <!-- Book Spine Center -->
  <line x1="256" y1="298" x2="256" y2="355" stroke="#94a3b8" stroke-width="3" />
  <!-- Book Lines -->
  <line x1="180" y1="310" x2="240" y2="300" stroke="#cbd5e1" stroke-width="2" />
  <line x1="180" y1="325" x2="240" y2="315" stroke="#cbd5e1" stroke-width="2" />
  <line x1="272" y1="300" x2="332" y2="310" stroke="#cbd5e1" stroke-width="2" />
  <line x1="272" y1="315" x2="332" y2="325" stroke="#cbd5e1" stroke-width="2" />

  <!-- Laurel Leaves Wreath Left -->
  <path d="M140 220 Q125 260 145 320 Q160 355 195 385" fill="none" stroke="url(#goldGrad)" stroke-width="6" stroke-linecap="round" />
  <!-- Laurel Leaves Wreath Right -->
  <path d="M372 220 Q387 260 367 320 Q352 355 317 385" fill="none" stroke="url(#goldGrad)" stroke-width="6" stroke-linecap="round" />
  
  <!-- Bottom Ribbon / Text Banner -->
  <path d="M140 395 Q256 420 372 395 L365 435 Q256 460 147 435 Z" fill="#2563eb" stroke="#60a5fa" stroke-width="2" />
  <text x="256" y="423" font-family="system-ui, -apple-system, sans-serif" font-size="20" font-weight="900" fill="#ffffff" text-anchor="middle" letter-spacing="3">SMP PGRI 1</text>
  <text x="256" y="446" font-family="system-ui, -apple-system, sans-serif" font-size="14" font-weight="700" fill="#fcd34d" text-anchor="middle" letter-spacing="4">CIKADU</text>
</svg>
